<?xml version="1.0" standalone="no"?>
<!DOCTYPE svg PUBLIC "-//W3C//DTD SVG 20010904//EN"
 "http://www.w3.org/TR/2001/REC-SVG-20010904/DTD/svg10.dtd">
<svg version="1.0" xmlns="http://www.w3.org/2000/svg"
 width="48.000000pt" height="48.000000pt" viewBox="0 0 48.000000 48.000000"
 preserveAspectRatio="xMidYMid meet">

<g transform="translate(0.000000,48.000000) scale(0.100000,-0.100000)"
fill="#000000" stroke="none">
<path d="M0 240 l0 -240 240 0 240 0 0 240 0 240 -240 0 -240 0 0 -240z m340
113 c0 -9 9 -30 20 -47 22 -36 17 -76 -9 -76 -9 1 -30 13 -48 28 -35 30 -34
33 7 99 15 23 30 22 30 -4z m-176 -39 c2 -22 4 -44 5 -51 1 -6 13 -13 29 -15
18 -2 28 -10 30 -23 2 -12 22 -31 51 -47 l48 -27 38 19 c21 11 41 18 43 15 12
-11 -38 -71 -78 -94 -58 -32 -152 -35 -174 -5 -8 10 -22 19 -31 19 -10 0 -25
11 -34 25 -9 13 -11 21 -4 17 9 -6 11 -3 7 7 -3 9 -10 14 -14 11 -4 -3 -11 2
-14 11 -5 12 -2 15 11 10 16 -5 15 -4 -1 9 -17 13 -17 15 -3 21 9 3 14 10 12
15 -9 13 26 60 39 52 6 -3 7 -2 3 3 -5 5 -14 9 -20 9 -7 0 -13 9 -15 20 -3 17
-1 18 8 5 9 -11 13 -12 17 -2 7 17 34 44 40 39 2 -3 6 -22 7 -43z m241 -103
c-6 -5 -25 10 -25 20 0 5 6 4 14 -3 8 -7 12 -15 11 -17z"/>
<path d="M129 166 c7 -8 19 -12 27 -9 18 7 10 16 -18 20 -17 3 -19 1 -9 -11z"/>
</g>
</svg>
